<svg width="16" height="16" viewBox="0 0 16 16" fill="none" xmlns="http://www.w3.org/2000/svg">
<path fill-rule="evenodd" clip-rule="evenodd" d="M11.8856 0C12.3022 0 12.6399 0.337705 12.6399 0.754286V1.50857H13.3941C14.6439 1.50857 15.657 2.52169 15.657 3.77143V12.8229C15.657 14.0726 14.6439 15.0857 13.3941 15.0857H2.83415C1.5844 15.0857 0.571289 14.0726 0.571289 12.8229V3.77143C0.571289 2.52169 1.5844 1.50857 2.83415 1.50857H3.58843V0.754286C3.58843 0.337705 3.92614 0 4.34272 0C4.7593 0 5.097 0.337705 5.097 0.754286V1.50857H11.1313V0.754286C11.1313 0.337705 11.469 0 11.8856 0ZM2.08008 7.54287V12.8229C2.08008 13.2394 2.41778 13.5771 2.83436 13.5771H13.3944C13.8109 13.5771 14.1486 13.2394 14.1486 12.8229V7.54287H2.08008ZM2.08008 6.0343H14.1486V3.77144C14.1486 3.35486 13.8109 3.01716 13.3944 3.01716H12.6401V3.77144C12.6401 4.18802 12.3024 4.52573 11.8858 4.52573C11.4692 4.52573 11.1315 4.18802 11.1315 3.77144V3.01716H5.09722V3.77144C5.09722 4.18802 4.75952 4.52573 4.34293 4.52573C3.92635 4.52573 3.58865 4.18802 3.58865 3.77144V3.01716H2.83436C2.41778 3.01716 2.08008 3.35486 2.08008 3.77144V6.0343Z" fill="black"/>
</svg>
