<svg width="22" height="22" viewBox="0 0 22 22" fill="none" xmlns="http://www.w3.org/2000/svg">
<path d="M21.6141 20.2813L14.5765 13.2437C15.6686 11.8319 16.2594 10.1057 16.2594 8.29006C16.2594 6.11672 15.4112 4.07888 13.8774 2.54237C12.3436 1.00586 10.3003 0.16037 8.12969 0.16037C5.95906 0.16037 3.9158 1.00857 2.382 2.54237C0.845487 4.07617 0 6.11672 0 8.29006C0 10.4607 0.848197 12.5039 2.382 14.0377C3.9158 15.5743 5.95635 16.4197 8.12969 16.4197C9.94532 16.4197 11.6688 15.829 13.0807 14.7396L20.1183 21.7745C20.1389 21.7952 20.1634 21.8115 20.1904 21.8227C20.2173 21.8339 20.2463 21.8396 20.2754 21.8396C20.3046 21.8396 20.3335 21.8339 20.3605 21.8227C20.3875 21.8115 20.412 21.7952 20.4326 21.7745L21.6141 20.5957C21.6348 20.5751 21.6512 20.5506 21.6623 20.5236C21.6735 20.4966 21.6793 20.4677 21.6793 20.4385C21.6793 20.4093 21.6735 20.3804 21.6623 20.3535C21.6512 20.3265 21.6348 20.302 21.6141 20.2813ZM12.4222 12.5825C11.2732 13.7288 9.75021 14.3602 8.12969 14.3602C6.50917 14.3602 4.98621 13.7288 3.83721 12.5825C2.69093 11.4335 2.05952 9.91058 2.05952 8.29006C2.05952 6.66954 2.69093 5.14387 3.83721 3.99758C4.98621 2.8513 6.50917 2.21989 8.12969 2.21989C9.75021 2.21989 11.2759 2.84859 12.4222 3.99758C13.5684 5.14658 14.1999 6.66954 14.1999 8.29006C14.1999 9.91058 13.5684 11.4362 12.4222 12.5825Z" fill="#505050"/>
</svg>
